<?xml version="1.0" encoding="utf-8"?>
<!-- Generator: Adobe Illustrator 24.0.2, SVG Export Plug-In . SVG Version: 6.00 Build 0)  -->
<svg version="1.1" id="Capa_1" xmlns="http://www.w3.org/2000/svg" xmlns:xlink="http://www.w3.org/1999/xlink" x="0px" y="0px"
	 viewBox="0 0 20.5 20.9" style="enable-background:new 0 0 20.5 20.9;" xml:space="preserve">
<style type="text/css">
	.st0{fill:#FFFFFF;stroke:#000000;stroke-width:0.25;stroke-miterlimit:10;}
	.st1{fill:#212529;}
	.st2{fill:#FCFCFC;}
	.st3{fill:#F9F9F9;}
	.st4{fill:#FAFBFC;}
	.st5{fill:#FFFFFF;}
</style>
<title>Icon-tienda</title>
<ellipse class="st0" cx="10.2" cy="10.5" rx="9.9" ry="10.3"/>
<g id="bolzo">
	<path class="st1" d="M10.2,3.5c1.4,0,2.5,1.1,2.5,2.5v0.5h-5V6C7.7,4.6,8.8,3.5,10.2,3.5z M13.7,6.5V6c0-1.9-1.6-3.5-3.5-3.5
		S6.7,4.1,6.7,6v0.5H3.2v10c0,1.1,0.9,2,2,2h10c1.1,0,2-0.9,2-2v-10H13.7z"/>
	<circle class="st2" cx="5.7" cy="8.9" r="0.8"/>
	<circle class="st3" cx="9.2" cy="13.5" r="1.5"/>
	<ellipse class="st3" cx="14.9" cy="9.4" rx="1" ry="0.9"/>
	<circle class="st4" cx="14.8" cy="15.2" r="0.5"/>
	<path class="st5" d="M15.9,18.4c0,0-0.1,0-0.1,0.1h-0.1h-0.2h-2.6c-0.3,0-0.4,0-0.4,0c-0.2-0.2,0.5-2,1.7-2S16,18.3,15.9,18.4z"/>
	<path class="st5" d="M5.9,18.1c0,0.1-0.1,0.3-0.2,0.4c-0.1,0-0.1,0-0.4,0H4.9c-0.2,0-0.3,0-0.3-0.1c-0.1-0.1-0.1-0.2-0.1-0.3
		c-0.1-0.5,0.3-0.9,0.8-1c0,0,0,0,0,0C5.7,17.2,6,17.7,5.9,18.1z"/>
	<circle class="st4" cx="10.6" cy="10.1" r="0.5"/>
	<ellipse class="st3" cx="4.9" cy="14.7" rx="1" ry="0.9"/>
</g>
</svg>
