<svg id="Capa_1" data-name="Capa 1" xmlns="http://www.w3.org/2000/svg" viewBox="0 0 14 16.02"><defs><style>.cls-1{fill:#212529;}.cls-2{fill:#fcfcfc;}.cls-3{fill:#f9f9f9;}.cls-4{fill:#fafbfc;}.cls-5{fill:#fff;}</style></defs><title>Icon-tienda</title><g id="bolzo"><path class="cls-1" d="M8,1a2.5,2.5,0,0,1,2.5,2.5V4h-5v-.5A2.5,2.5,0,0,1,8,1Zm3.5,3v-.5a3.5,3.5,0,0,0-7,0V4H1V14a2,2,0,0,0,2,2H13a2,2,0,0,0,2-2V4Z" transform="translate(-1 0.01)"/><circle class="cls-2" cx="2.45" cy="6.43" r="0.78"/><circle class="cls-3" cx="6.02" cy="10.98" r="1.52"/><ellipse class="cls-3" cx="11.66" cy="6.89" rx="1.02" ry="0.91"/><circle class="cls-4" cx="11.55" cy="12.72" r="0.53"/><path class="cls-5" d="M13.71,15.86a.46.46,0,0,1-.15.05l-.15,0-.18,0H10.66c-.34,0-.37,0-.39,0-.18-.2.48-2,1.71-2S13.81,15.76,13.71,15.86Z" transform="translate(-1 0.01)"/><path class="cls-5" d="M3.74,15.63a.52.52,0,0,1-.23.36c-.07,0-.1,0-.36,0l-.48,0c-.24,0-.29,0-.34-.08a.49.49,0,0,1-.12-.25A.86.86,0,0,1,3,14.7.85.85,0,0,1,3.74,15.63Z" transform="translate(-1 0.01)"/><circle class="cls-4" cx="7.4" cy="7.58" r="0.53"/><ellipse class="cls-3" cx="1.73" cy="12.19" rx="1.02" ry="0.91"/></g></svg>